<svg xmlns="http://www.w3.org/2000/svg" viewBox="240 90 680 730" aria-hidden="true">
  <defs>
    <linearGradient id="chirp-purple" x1="0" y1="0" x2="1" y2="1">
      <stop offset="0" stop-color="#8B5CF6"/>
      <stop offset="0.55" stop-color="#7C3AED"/>
      <stop offset="1" stop-color="#5B21B6"/>
    </linearGradient>
  </defs>
  <path d="M284 794 L284 430 C284 279 396 194 554 194 C719 194 826 291 826 438 C826 584 720 664 565 664 L447 664 Z" fill="url(#chirp-purple)"/>
  <path d="M384 224 C362 176 327 145 286 138 C329 163 354 190 367 230 Z" fill="url(#chirp-purple)"/>
  <path d="M420 209 C398 150 355 113 313 102 C364 130 394 166 405 218 Z" fill="url(#chirp-purple)"/>
  <path d="M451 207 C438 161 410 130 382 117 C416 145 431 172 435 213 Z" fill="url(#chirp-purple)"/>
  <path d="M818 414 L891 451 L818 487 Z" fill="#6D28D9"/>
  <circle cx="644" cy="401" r="76" fill="#FFFFFF"/>
  <circle cx="666" cy="414" r="31" fill="#1E1B4B"/>
  <circle cx="677" cy="402" r="9" fill="#FFFFFF" opacity="0.92"/>
</svg>
